<svg width="25" height="25" viewBox="0 0 25 25" fill="none" xmlns="http://www.w3.org/2000/svg">
<path d="M1.91974 9.70116L0.959868 10.903L0 9.70116L0.959868 8.49935L1.91974 9.70116ZM25 23.3001C25 23.751 24.857 24.1833 24.6024 24.5021C24.3477 24.8209 24.0024 25 23.6423 25C23.2823 25 22.9369 24.8209 22.6823 24.5021C22.4277 24.1833 22.2847 23.751 22.2847 23.3001H25ZM7.74818 19.4023L0.959868 10.903L2.8796 8.49935L9.66792 16.9987L7.74818 19.4023ZM0.959868 8.49935L7.74818 0L9.66792 2.40362L2.8796 10.903L0.959868 8.49935ZM1.91974 8.00129H15.4964V11.401H1.91974V8.00129ZM25 19.9004V23.3001H22.2847V19.9004H25ZM15.4964 8.00129C18.0169 8.00129 20.4342 9.25494 22.2164 11.4865C23.9987 13.718 25 16.7446 25 19.9004H22.2847C22.2847 17.6462 21.5695 15.4844 20.2964 13.8904C19.0234 12.2965 17.2967 11.401 15.4964 11.401V8.00129Z" fill="white"/>
</svg>
