<svg width="44" height="41" viewBox="0 0 44 41" fill="none" xmlns="http://www.w3.org/2000/svg">
<rect x="0.5" y="0.5" width="42.59" height="39.76" rx="4.5" fill="white" stroke="#188DFA"/>
<path d="M19.9547 19.735L7.45564 5.62134L9.56483 4.21582C10.2629 4.21582 23.5392 19.6633 23.5872 19.6765C24.9934 21.082 23.5392 19.6633 23.5392 19.6633L26.4384 22.4875C26.4384 23.1598 23.5872 19.6765 23.5872 19.6765L26.4384 22.4875L36.6425 33.1775C33.8302 35.2858 35.5782 35.1372 27.8445 28.1096C27.7471 28.0414 22.22 22.4875 22.22 22.4875L19.9547 19.735ZM20.1545 32.8532C20.1545 34.2142 18.9376 35.3128 17.4301 35.3128C15.9226 35.3128 14.7058 34.2142 14.7058 32.8532C14.7058 31.4922 15.9226 30.3935 17.4301 30.3935C18.9376 30.3935 20.1545 31.4922 20.1545 32.8532ZM31.9601 32.8532C31.9601 34.2142 30.7432 35.3128 29.2358 35.3128C27.7283 35.3128 26.5114 34.2142 26.5114 32.8532C26.5114 31.4922 27.7283 30.3935 29.2358 30.3935C30.7432 30.3935 31.9601 31.4922 31.9601 32.8532ZM37.3726 14.7009L33.7401 27.8191C33.6669 28.0864 33.4964 28.3238 33.256 28.4933C33.0156 28.6627 32.7192 28.7545 32.4142 28.7538H14.2517C13.5978 28.7538 13.0348 28.3274 12.9077 27.7371L9.47496 10.7163H6.9867C6.24204 10.7163 5.62451 10.1588 5.62451 9.48647C5.62451 8.81416 6.24204 8.25664 6.9867 8.25664H10.6192C11.273 8.25664 11.8361 8.68298 11.9632 9.2733L12.7442 13.176H36.0467C36.2532 13.1767 36.4569 13.2197 36.6425 13.3016C36.828 13.3835 36.9906 13.5022 37.1182 13.6489C37.2457 13.7956 37.3348 13.9664 37.3789 14.1486C37.4229 14.3308 37.4208 14.5196 37.3726 14.7009ZM34.3031 15.6356H13.2346L15.3778 26.2941H31.3426L34.2849 15.6356H34.3031Z" fill="#188DFA"/>
</svg>
