<svg width="18" height="18" viewBox="0 0 18 18" fill="none" xmlns="http://www.w3.org/2000/svg">
<path d="M6.65718 13.3144C4.79659 13.3144 3.22208 12.6698 1.93366 11.3807C0.645235 10.0916 0.00068333 8.5171 5.41895e-07 6.65718C-0.000682246 4.79727 0.64387 3.22276 1.93366 1.93366C3.22344 0.644552 4.79795 0 6.65718 0C8.51642 0 10.0913 0.644552 11.3817 1.93366C12.6722 3.22276 13.3164 4.79727 13.3144 6.65718C13.3144 7.40825 13.1949 8.11664 12.9559 8.78236C12.7169 9.44808 12.3926 10.037 11.9829 10.5491L17.7183 16.2845C17.9061 16.4723 18 16.7112 18 17.0014C18 17.2916 17.9061 17.5306 17.7183 17.7183C17.5306 17.9061 17.2916 18 17.0014 18C16.7112 18 16.4723 17.9061 16.2845 17.7183L10.5491 11.9829C10.037 12.3926 9.44808 12.7169 8.78236 12.9559C8.11664 13.1949 7.40825 13.3144 6.65718 13.3144ZM6.65718 11.266C7.93741 11.266 9.02578 10.8181 9.92228 9.92228C10.8188 9.02646 11.2667 7.93809 11.266 6.65718C11.2653 5.37627 10.8174 4.28825 9.92228 3.39312C9.02714 2.49798 7.93878 2.04973 6.65718 2.04836C5.37559 2.047 4.28757 2.49525 3.39312 3.39312C2.49866 4.29098 2.05041 5.379 2.04836 6.65718C2.04632 7.93536 2.49457 9.02373 3.39312 9.92228C4.29167 10.8208 5.37969 11.2687 6.65718 11.266Z" fill="#8C8C8C"/>
</svg>
