<svg width="25" height="25" viewBox="0 0 25 25" fill="none" xmlns="http://www.w3.org/2000/svg">
<path d="M20.0313 15.8958L17.3855 15.5937C17.0744 15.5572 16.759 15.5916 16.4631 15.6945C16.1672 15.7973 15.8985 15.9659 15.6771 16.1875L13.7605 18.1042C10.8036 16.5999 8.40011 14.1965 6.89588 11.2396L8.82296 9.31249C9.27088 8.86458 9.48963 8.23958 9.41671 7.60416L9.11463 4.97916C9.05579 4.47092 8.81199 4.0021 8.42969 3.66207C8.0474 3.32204 7.55334 3.13457 7.04171 3.13541H5.23963C4.06254 3.13541 3.08338 4.11458 3.15629 5.29166C3.70838 14.1875 10.823 21.2917 19.7084 21.8437C20.8855 21.9167 21.8646 20.9375 21.8646 19.7604V17.9583C21.875 16.9062 21.0834 16.0208 20.0313 15.8958Z" fill="black"/>
</svg>
