<svg width="38" height="38" viewBox="0 0 38 38" fill="none" xmlns="http://www.w3.org/2000/svg">
<path d="M16.0312 34.4375C15.5588 34.4375 15.1058 34.2498 14.7717 33.9158C14.4377 33.5817 14.25 33.1287 14.25 32.6562C14.25 32.1838 14.4377 31.7308 14.7717 31.3967C15.1058 31.0627 15.5588 30.875 16.0312 30.875C16.5037 30.875 16.9567 31.0627 17.2908 31.3967C17.6248 31.7308 17.8125 32.1838 17.8125 32.6562C17.8125 33.1287 17.6248 33.5817 17.2908 33.9158C16.9567 34.2498 16.5037 34.4375 16.0312 34.4375ZM27.9062 34.4375C27.4338 34.4375 26.9808 34.2498 26.6467 33.9158C26.3127 33.5817 26.125 33.1287 26.125 32.6562C26.125 32.1838 26.3127 31.7308 26.6467 31.3967C26.9808 31.0627 27.4338 30.875 27.9062 30.875C28.3787 30.875 28.8317 31.0627 29.1658 31.3967C29.4998 31.7308 29.6875 32.1838 29.6875 32.6562C29.6875 33.1287 29.4998 33.5817 29.1658 33.9158C28.8317 34.2498 28.3787 34.4375 27.9062 34.4375ZM3.5625 4.75C3.24756 4.75 2.94551 4.62489 2.72281 4.40219C2.50011 4.17949 2.375 3.87744 2.375 3.5625C2.375 3.24756 2.50011 2.94551 2.72281 2.72281C2.94551 2.50011 3.24756 2.375 3.5625 2.375H9.5C9.77442 2.37517 10.0403 2.47037 10.2525 2.64443C10.4646 2.81849 10.61 3.06065 10.6637 3.32975L11.8988 9.5H34.4375C34.6146 9.49995 34.7896 9.53953 34.9494 9.61584C35.1093 9.69215 35.25 9.80326 35.3614 9.94103C35.4728 10.0788 35.5519 10.2397 35.593 10.412C35.6341 10.5844 35.6361 10.7637 35.5989 10.9369L32.0364 27.5619C31.9793 27.8275 31.8329 28.0655 31.6215 28.2363C31.4102 28.407 31.1467 28.5001 30.875 28.5H14.25C13.9756 28.4998 13.7097 28.4046 13.4975 28.2306C13.2854 28.0565 13.14 27.8143 13.0863 27.5452L8.52625 4.75H3.5625ZM15.2237 26.125H29.9155L32.9697 11.875H12.3737L15.2237 26.125Z" fill="black"/>
<path d="M18.9022 24V22.2L22.8772 18.555C23.1772 18.295 23.3922 18.035 23.5222 17.775C23.6622 17.515 23.7322 17.265 23.7322 17.025C23.7322 16.735 23.6672 16.485 23.5372 16.275C23.4072 16.065 23.2272 15.905 22.9972 15.795C22.7672 15.685 22.4922 15.63 22.1722 15.63C21.7922 15.63 21.4072 15.72 21.0172 15.9C20.6372 16.07 20.1772 16.33 19.6372 16.68L18.9022 15.12C19.4622 14.68 20.0122 14.355 20.5522 14.145C21.0922 13.935 21.6722 13.83 22.2922 13.83C23.0122 13.83 23.6472 13.96 24.1972 14.22C24.7472 14.47 25.1772 14.835 25.4872 15.315C25.7972 15.785 25.9522 16.355 25.9522 17.025C25.9522 17.515 25.8122 17.99 25.5322 18.45C25.2622 18.91 24.8122 19.415 24.1822 19.965L21.6772 22.2H26.1022V24H18.9022Z" fill="black"/>
</svg>
