<svg width="38" height="38" viewBox="0 0 38 38" fill="none" xmlns="http://www.w3.org/2000/svg">
<path d="M16.0312 34.4375C15.5588 34.4375 15.1058 34.2498 14.7717 33.9158C14.4377 33.5817 14.25 33.1287 14.25 32.6562C14.25 32.1838 14.4377 31.7308 14.7717 31.3967C15.1058 31.0627 15.5588 30.875 16.0312 30.875C16.5037 30.875 16.9567 31.0627 17.2908 31.3967C17.6248 31.7308 17.8125 32.1838 17.8125 32.6562C17.8125 33.1287 17.6248 33.5817 17.2908 33.9158C16.9567 34.2498 16.5037 34.4375 16.0312 34.4375ZM27.9062 34.4375C27.4338 34.4375 26.9808 34.2498 26.6467 33.9158C26.3127 33.5817 26.125 33.1287 26.125 32.6562C26.125 32.1838 26.3127 31.7308 26.6467 31.3967C26.9808 31.0627 27.4338 30.875 27.9062 30.875C28.3787 30.875 28.8317 31.0627 29.1658 31.3967C29.4998 31.7308 29.6875 32.1838 29.6875 32.6562C29.6875 33.1287 29.4998 33.5817 29.1658 33.9158C28.8317 34.2498 28.3787 34.4375 27.9062 34.4375ZM3.5625 4.75C3.24756 4.75 2.94551 4.62489 2.72281 4.40219C2.50011 4.17949 2.375 3.87744 2.375 3.5625C2.375 3.24756 2.50011 2.94551 2.72281 2.72281C2.94551 2.50011 3.24756 2.375 3.5625 2.375H9.5C9.77442 2.37517 10.0403 2.47037 10.2525 2.64443C10.4646 2.81849 10.61 3.06065 10.6637 3.32975L11.8988 9.5H34.4375C34.6146 9.49995 34.7896 9.53953 34.9494 9.61584C35.1093 9.69215 35.25 9.80326 35.3614 9.94103C35.4728 10.0788 35.5519 10.2397 35.593 10.412C35.6341 10.5844 35.6361 10.7637 35.5989 10.9369L32.0364 27.5619C31.9793 27.8275 31.8329 28.0655 31.6215 28.2363C31.4102 28.407 31.1467 28.5001 30.875 28.5H14.25C13.9756 28.4998 13.7097 28.4046 13.4975 28.2306C13.2854 28.0565 13.14 27.8143 13.0863 27.5452L8.52625 4.75H3.5625ZM15.2237 26.125H29.9155L32.9697 11.875H12.3737L15.2237 26.125Z" fill="black"/>
</svg>
