<svg width="30" height="31" viewBox="0 0 30 31" fill="none" xmlns="http://www.w3.org/2000/svg">
<path d="M16.7533 15.6134C16.7458 16.0034 16.6228 16.3823 16.3997 16.7023C16.1767 17.0222 15.8637 17.2687 15.5003 17.4105C15.137 17.5524 14.7398 17.5831 14.359 17.499C13.9781 17.4148 13.6309 17.2194 13.3612 16.9376C13.0916 16.6559 12.9116 16.3004 12.8442 15.9162C12.7768 15.5321 12.825 15.1366 12.9826 14.7798C13.1403 14.4231 13.4003 14.1212 13.7297 13.9124C14.0591 13.7036 14.4431 13.5973 14.833 13.607C15.3511 13.6261 15.8414 13.8464 16.1998 14.2209C16.5583 14.5955 16.7568 15.095 16.7533 15.6134Z" fill="#188DFA"/>
<path d="M18.1725 9.44633H11.4946C10.8338 9.44633 10.2001 9.70882 9.7329 10.1761C9.26566 10.6433 9.00317 11.277 9.00317 11.9378V18.7659C9.00317 19.0931 9.06762 19.417 9.19282 19.7193C9.31803 20.0216 9.50155 20.2962 9.7329 20.5276C9.96425 20.7589 10.2389 20.9425 10.5412 21.0677C10.8435 21.1929 11.1674 21.2573 11.4946 21.2573H18.1725C18.4997 21.2573 18.8237 21.1929 19.126 21.0677C19.4282 20.9425 19.7029 20.7589 19.9343 20.5276C20.1656 20.2962 20.3491 20.0216 20.4743 19.7193C20.5995 19.417 20.664 19.0931 20.664 18.7659V11.9501C20.6653 11.622 20.6018 11.2968 20.4772 10.9933C20.3526 10.6897 20.1693 10.4137 19.9379 10.1811C19.7064 9.94854 19.4314 9.76391 19.1284 9.63781C18.8255 9.51172 18.5007 9.44665 18.1725 9.44633ZM14.833 18.953C14.1719 18.9679 13.5214 18.7855 12.9644 18.4291C12.4075 18.0727 11.9693 17.5584 11.706 16.9519C11.4426 16.3454 11.3659 15.6741 11.4857 15.0238C11.6054 14.3736 11.9163 13.7737 12.3784 13.3008C12.8406 12.828 13.4333 12.5035 14.0806 12.3689C14.728 12.2344 15.4008 12.2957 16.0132 12.5452C16.6256 12.7947 17.1497 13.2209 17.5188 13.7696C17.8878 14.3183 18.085 14.9645 18.0851 15.6257C18.0905 16.0578 18.0106 16.4868 17.85 16.888C17.6894 17.2892 17.4512 17.6548 17.1491 17.9638C16.8471 18.2729 16.487 18.5193 16.0895 18.6891C15.6921 18.8588 15.2651 18.9485 14.833 18.953ZM18.447 12.2997C18.3658 12.2997 18.2854 12.2835 18.2105 12.2521C18.1356 12.2206 18.0678 12.1745 18.0109 12.1165C17.954 12.0585 17.9093 11.9897 17.8794 11.9142C17.8494 11.8387 17.8349 11.758 17.8365 11.6768C17.8365 11.5116 17.9021 11.3532 18.0189 11.2364C18.1357 11.1196 18.2942 11.054 18.4594 11.054C18.6245 11.054 18.783 11.1196 18.8998 11.2364C19.0166 11.3532 19.0822 11.5116 19.0822 11.6768C19.0847 11.7648 19.0681 11.8522 19.0336 11.9331C18.9991 12.014 18.9475 12.0866 18.8824 12.1457C18.8173 12.2049 18.7402 12.2492 18.6563 12.2758C18.5725 12.3024 18.4839 12.3105 18.3966 12.2997H18.447Z" fill="#188DFA"/>
<path d="M14.833 3.00476C11.5683 2.98843 8.43087 4.26967 6.11084 6.56661C3.79082 8.86355 2.47827 11.988 2.46195 15.2527C2.44562 18.5174 3.72686 21.6549 6.0238 23.9749C8.32074 26.2949 11.4452 27.6075 14.7099 27.6238C16.3264 27.6319 17.9287 27.3215 19.4253 26.7104C20.9218 26.0992 22.2833 25.1993 23.4321 24.062C24.5809 22.9246 25.4944 21.5722 26.1204 20.0818C26.7465 18.5914 27.0729 16.9923 27.081 15.3758C27.0891 13.7593 26.7787 12.157 26.1675 10.6605C25.5564 9.16394 24.6565 7.80242 23.5191 6.65366C22.3818 5.5049 21.0294 4.5914 19.539 3.96532C18.0486 3.33924 16.4495 3.01284 14.833 3.00476ZM22.3086 18.6403C22.312 19.1926 22.2058 19.74 21.9961 20.2509C21.7864 20.7618 21.4773 21.226 21.0869 21.6165C20.6964 22.0071 20.2323 22.3162 19.7215 22.5261C19.2107 22.736 18.6633 22.8424 18.111 22.8391H11.5575C11.0052 22.8425 10.4578 22.7363 9.94689 22.5266C9.436 22.3169 8.97182 22.0078 8.58126 21.6174C8.1907 21.2269 7.88152 20.7628 7.67165 20.252C7.46179 19.7412 7.35541 19.1938 7.35868 18.6415V12.0867C7.35524 11.5345 7.46147 10.987 7.67118 10.4762C7.8809 9.96527 8.18994 9.50109 8.58038 9.11053C8.97083 8.71997 9.43492 8.41079 9.94575 8.20093C10.4566 7.99106 11.004 7.88468 11.5562 7.88795H18.111C18.6632 7.88468 19.2105 7.99102 19.7212 8.20081C20.232 8.4106 20.696 8.71967 21.0864 9.1101C21.4769 9.50053 21.7859 9.96456 21.9957 10.4753C22.2055 10.986 22.3119 11.5334 22.3086 12.0855V18.6403Z" fill="#188DFA"/>
</svg>
