<svg width="29" height="28" viewBox="0 0 29 28" fill="none" xmlns="http://www.w3.org/2000/svg">
<path d="M4.75832 22.883C4.10405 22.883 3.54415 22.6591 3.07863 22.2114C2.6131 21.7636 2.37994 21.2248 2.37915 20.5947V6.8649C2.37915 6.23562 2.61231 5.6971 3.07863 5.24936C3.54494 4.80162 4.10484 4.57736 4.75832 4.5766H23.7917C24.4459 4.5766 25.0062 4.80085 25.4725 5.24936C25.9389 5.69787 26.1716 6.23638 26.1708 6.8649V20.5947C26.1708 21.224 25.9381 21.7629 25.4725 22.2114C25.007 22.6599 24.4467 22.8838 23.7917 22.883H4.75832ZM14.275 14.874L23.7917 9.1532V6.8649L14.275 12.5857L4.75832 6.8649V9.1532L14.275 14.874Z" fill="black"/>
</svg>
