<svg width="29" height="29" viewBox="0 0 29 29" fill="none" xmlns="http://www.w3.org/2000/svg">
<path d="M4.75832 23.7917C4.10405 23.7917 3.54415 23.5589 3.07863 23.0934C2.6131 22.6279 2.37994 22.0676 2.37915 21.4125V7.1375C2.37915 6.48323 2.61231 5.92333 3.07863 5.45781C3.54494 4.99228 4.10484 4.75912 4.75832 4.75833H23.7917C24.4459 4.75833 25.0062 4.99149 25.4725 5.45781C25.9389 5.92412 26.1716 6.48402 26.1708 7.1375V21.4125C26.1708 22.0668 25.9381 22.6271 25.4725 23.0934C25.007 23.5597 24.4467 23.7925 23.7917 23.7917H4.75832ZM14.275 15.4646L23.7917 9.51666V7.1375L14.275 13.0854L4.75832 7.1375V9.51666L14.275 15.4646Z" fill="white"/>
</svg>
