<svg width="36" height="36" viewBox="0 0 36 36" fill="none" xmlns="http://www.w3.org/2000/svg">
<path d="M18 0.960022L12.345 4.50002H7.5V7.50002L4.455 9.43502C3.585 9.96002 3 10.905 3 12V27C3 27.7957 3.31607 28.5587 3.87868 29.1213C4.44129 29.684 5.20435 30 6 30H30C31.665 30 33 28.665 33 27V12C33 10.905 32.415 9.96002 31.545 9.43502L28.5 7.50002V4.50002H23.655M10.5 7.50002H25.5V14.82L18 19.5L10.5 14.82M12 9.00002V11.25H24V9.00002M7.5 11.07V12.945L6 12M28.5 11.07L30 12L28.5 12.945M12 12.75V15H24V12.75H12Z" fill="white"/>
</svg>
