<svg width="41" height="41" viewBox="0 0 41 41" fill="none" xmlns="http://www.w3.org/2000/svg">
<path d="M18.3595 33.8482L18.3587 33.8475C13.95 29.8497 10.3306 26.5631 7.80766 23.4764C5.29019 20.3964 3.91663 17.5767 3.91663 14.5208C3.91663 9.51882 7.82634 5.625 12.8125 5.625C15.6338 5.625 18.3499 6.94098 20.1205 9.00397L20.5 9.44605L20.8794 9.00397C22.65 6.94098 25.3661 5.625 28.1875 5.625C33.1736 5.625 37.0833 9.51882 37.0833 14.5208C37.0833 17.5767 35.7097 20.3964 33.1923 23.4764C30.6693 26.5631 27.05 29.8497 22.6412 33.8475L22.6405 33.8482L20.5 35.7968L18.3595 33.8482Z" fill="black" stroke="#F5F5F5"/>
</svg>
