<svg width="25" height="25" viewBox="0 0 25 25" fill="none" xmlns="http://www.w3.org/2000/svg">
<g clip-path="url(#clip0_131_1003)">
<path d="M3.125 7.8125V23.4375C3.125 24.2969 3.82812 25 4.6875 25H18.75C19.6094 25 20.3125 24.2969 20.3125 23.4375V7.8125H3.125ZM7.8125 21.875H6.25V10.9375H7.8125V21.875ZM10.9375 21.875H9.375V10.9375H10.9375V21.875ZM14.0625 21.875H12.5V10.9375H14.0625V21.875ZM17.1875 21.875H15.625V10.9375H17.1875V21.875ZM20.7031 3.125H15.625V1.17188C15.6238 0.861454 15.4999 0.5641 15.2804 0.344598C15.0609 0.125096 14.7635 0.00123429 14.4531 0L8.98438 0C8.67395 0.00123429 8.3766 0.125096 8.1571 0.344598C7.9376 0.5641 7.81373 0.861454 7.8125 1.17188V3.125H2.73438C2.42357 3.125 2.1255 3.24846 1.90573 3.46823C1.68597 3.688 1.5625 3.98607 1.5625 4.29688V6.25H21.875V4.29688C21.875 3.98607 21.7515 3.688 21.5318 3.46823C21.312 3.24846 21.0139 3.125 20.7031 3.125ZM14.0625 3.125H9.375V1.58281H14.0625V3.125Z" fill="#8C8C8C"/>
</g>
<defs>
<clipPath id="clip0_131_1003">
<rect width="25" height="25" fill="white"/>
</clipPath>
</defs>
</svg>
