<svg width="30" height="30" viewBox="0 0 30 30" fill="none" xmlns="http://www.w3.org/2000/svg">
<path d="M11.1278 26.5147C12.3095 26.8717 13.5036 27.081 14.7714 27.081C18.0361 27.081 21.1671 25.7841 23.4756 23.4756C25.7841 21.1671 27.081 18.0361 27.081 14.7714C27.081 13.1549 26.7626 11.5542 26.144 10.0608C25.5253 8.56732 24.6186 7.21033 23.4756 6.06728C22.3325 4.92424 20.9755 4.01752 19.4821 3.39891C17.9886 2.7803 16.3879 2.46191 14.7714 2.46191C13.1549 2.46191 11.5542 2.7803 10.0608 3.39891C8.56733 4.01752 7.21034 4.92424 6.06729 6.06728C3.75881 8.37577 2.46191 11.5067 2.46191 14.7714C2.46191 20.003 5.74856 24.496 10.3892 26.2685C10.2785 25.3084 10.1677 23.7205 10.3892 22.6249L11.8048 16.544C11.8048 16.544 11.4479 15.83 11.4479 14.6976C11.4479 12.9989 12.5065 11.731 13.7128 11.731C14.7714 11.731 15.2638 12.5065 15.2638 13.5035C15.2638 14.5622 14.5622 16.0762 14.2052 17.5288C13.9959 18.7351 14.8453 19.7937 16.0762 19.7937C18.2673 19.7937 19.9661 17.4549 19.9661 14.156C19.9661 11.2017 17.8488 9.18291 14.8084 9.18291C11.3371 9.18291 9.2937 11.7679 9.2937 14.4883C9.2937 15.5469 9.63837 16.6179 10.2046 17.3195C10.3154 17.3934 10.3154 17.4918 10.2785 17.6765L9.92149 19.0182C9.92149 19.2275 9.78608 19.3013 9.57682 19.1536C8.0012 18.4643 7.0903 16.224 7.0903 14.4145C7.0903 10.5246 9.84763 6.99181 15.1653 6.99181C19.3998 6.99181 22.6988 10.0323 22.6988 14.0698C22.6988 18.3043 20.0768 21.7017 16.3224 21.7017C15.1284 21.7017 13.959 21.0616 13.5405 20.3107L12.7157 23.2281C12.4326 24.2867 11.6571 25.7023 11.1278 26.5516V26.5147Z" fill="white"/>
</svg>
