<svg width="30" height="31" viewBox="0 0 30 31" fill="none" xmlns="http://www.w3.org/2000/svg">
<path d="M11.1278 27.0576C12.3095 27.4145 13.5036 27.6238 14.7714 27.6238C18.0361 27.6238 21.1671 26.3269 23.4756 24.0184C25.7841 21.7099 27.081 18.579 27.081 15.3143C27.081 13.6978 26.7626 12.0971 26.144 10.6036C25.5253 9.11017 24.6186 7.75318 23.4756 6.61013C22.3325 5.46709 20.9755 4.56038 19.4821 3.94177C17.9886 3.32315 16.3879 3.00476 14.7714 3.00476C13.1549 3.00476 11.5542 3.32315 10.0608 3.94177C8.56733 4.56038 7.21034 5.46709 6.06729 6.61013C3.75881 8.91862 2.46191 12.0496 2.46191 15.3143C2.46191 20.5458 5.74856 25.0388 10.3892 26.8114C10.2785 25.8512 10.1677 24.2633 10.3892 23.1678L11.8048 17.0869C11.8048 17.0869 11.4479 16.3729 11.4479 15.2404C11.4479 13.5417 12.5065 12.2738 13.7128 12.2738C14.7714 12.2738 15.2638 13.0493 15.2638 14.0464C15.2638 15.105 14.5622 16.6191 14.2052 18.0716C13.9959 19.2779 14.8453 20.3366 16.0762 20.3366C18.2673 20.3366 19.9661 17.9978 19.9661 14.6988C19.9661 11.7445 17.8488 9.72576 14.8084 9.72576C11.3371 9.72576 9.2937 12.3108 9.2937 15.0312C9.2937 16.0898 9.63837 17.1607 10.2046 17.8624C10.3154 17.9362 10.3154 18.0347 10.2785 18.2193L9.92149 19.5611C9.92149 19.7703 9.78608 19.8442 9.57682 19.6965C8.0012 19.0071 7.0903 16.7668 7.0903 14.9573C7.0903 11.0675 9.84763 7.53466 15.1653 7.53466C19.3998 7.53466 22.6988 10.5751 22.6988 14.6126C22.6988 18.8471 20.0768 22.2445 16.3224 22.2445C15.1284 22.2445 13.959 21.6045 13.5405 20.8536L12.7157 23.7709C12.4326 24.8295 11.6571 26.2451 11.1278 27.0945V27.0576Z" fill="#188DFA"/>
</svg>
