<svg width="15" height="15" viewBox="0 0 15 15" fill="none" xmlns="http://www.w3.org/2000/svg">
<path d="M15 11.2507C15 11.6927 14.8244 12.1166 14.5118 12.4292C14.1993 12.7417 13.7754 12.9173 13.3333 12.9173H1.66667C1.22464 12.9173 0.800716 12.7417 0.488155 12.4292C0.175595 12.1166 0 11.6927 0 11.2507V3.75065C0 3.30862 0.175595 2.8847 0.488155 2.57214C0.800716 2.25958 1.22464 2.08398 1.66667 2.08398H13.3333C13.7754 2.08398 14.1993 2.25958 14.5118 2.57214C14.8244 2.8847 15 3.30862 15 3.75065V11.2507Z" fill="#C60A1D"/>
<path d="M0 5H15V10H0V5Z" fill="#FFC400"/>
<path d="M3.75 7.08398V8.33398C3.75 8.6655 3.8817 8.98345 4.11612 9.21787C4.35054 9.45229 4.66848 9.58398 5 9.58398C5.33152 9.58398 5.64946 9.45229 5.88388 9.21787C6.1183 8.98345 6.25 8.6655 6.25 8.33398V7.08398H3.75Z" fill="#EA596E"/>
<path d="M5 6.66602H6.25V7.91602H5V6.66602Z" fill="#F4A2B2"/>
<path d="M3.75 6.66602H5V7.91602H3.75V6.66602Z" fill="#DD2E44"/>
<path d="M5 6.66602C5.69036 6.66602 6.25 6.38619 6.25 6.04102C6.25 5.69584 5.69036 5.41602 5 5.41602C4.30964 5.41602 3.75 5.69584 3.75 6.04102C3.75 6.38619 4.30964 6.66602 5 6.66602Z" fill="#EA596E"/>
<path d="M5 6.04102C5.69036 6.04102 6.25 5.9011 6.25 5.72852C6.25 5.55593 5.69036 5.41602 5 5.41602C4.30964 5.41602 3.75 5.55593 3.75 5.72852C3.75 5.9011 4.30964 6.04102 5 6.04102Z" fill="#FFAC33"/>
<path d="M2.91699 6.66602H3.33366V9.58268H2.91699V6.66602ZM6.66699 6.66602H7.08366V9.58268H6.66699V6.66602Z" fill="#99AAB5"/>
<path d="M2.5 9.16667H3.75V9.58333H2.5V9.16667ZM6.25 9.16667H7.5V9.58333H6.25V9.16667ZM2.91667 6.25H3.33333V6.66667H2.91667V6.25ZM6.66667 6.25H7.08333V6.66667H6.66667V6.25Z" fill="#66757F"/>
</svg>
