<svg width="33" height="33" viewBox="0 0 33 33" fill="none" xmlns="http://www.w3.org/2000/svg">
<path d="M16.5 20.625C18.7782 20.625 20.625 18.7782 20.625 16.5C20.625 14.2218 18.7782 12.375 16.5 12.375C14.2218 12.375 12.375 14.2218 12.375 16.5C12.375 18.7782 14.2218 20.625 16.5 20.625Z" fill="#8C8C8C"/>
<path d="M31.6361 15.3785C29.9307 12.7411 27.718 10.5007 25.2379 8.89904C22.4941 7.12529 19.4648 6.1875 16.478 6.1875C13.7375 6.1875 11.0427 6.97061 8.46844 8.5149C5.84326 10.0895 3.46494 12.3898 1.39922 15.3514C1.16602 15.6862 1.03759 16.0826 1.03024 16.4905C1.0229 16.8984 1.13697 17.2992 1.35797 17.6421C3.06018 20.306 5.25094 22.5496 7.69242 24.1293C10.4413 25.9102 13.3997 26.8125 16.478 26.8125C19.4886 26.8125 22.5244 25.8824 25.2565 24.1235C27.7354 22.527 29.9436 20.2782 31.6426 17.6189C31.8559 17.284 31.9688 16.8949 31.9676 16.4978C31.9665 16.1007 31.8514 15.7122 31.6361 15.3785ZM16.4999 22.6875C15.2762 22.6875 14.0799 22.3246 13.0624 21.6447C12.0448 20.9648 11.2518 19.9985 10.7834 18.8679C10.3151 17.7372 10.1926 16.4931 10.4313 15.2929C10.6701 14.0926 11.2594 12.9901 12.1247 12.1248C12.9901 11.2594 14.0926 10.6701 15.2928 10.4314C16.4931 10.1926 17.7372 10.3152 18.8678 10.7835C19.9984 11.2518 20.9648 12.0449 21.6447 13.0624C22.3246 14.0799 22.6874 15.2762 22.6874 16.5C22.6856 18.1405 22.0331 19.7132 20.8731 20.8732C19.7131 22.0331 18.1404 22.6856 16.4999 22.6875Z" fill="#8C8C8C"/>
</svg>
