<svg width="33" height="33" viewBox="0 0 33 33" fill="none" xmlns="http://www.w3.org/2000/svg">
<g clip-path="url(#clip0_371_5043)">
<path d="M29.4531 28.9375H3.04688C1.36094 28.9375 0 27.5766 0 25.8906V7.60938C0 5.92344 1.36094 4.5625 3.04688 4.5625H29.4531C31.1391 4.5625 32.5 5.92344 32.5 7.60938V25.8906C32.5 27.5766 31.1391 28.9375 29.4531 28.9375ZM3.04688 6.59375C2.47813 6.59375 2.03125 7.04063 2.03125 7.60938V25.8906C2.03125 26.4594 2.47813 26.9062 3.04688 26.9062H29.4531C30.0219 26.9062 30.4688 26.4594 30.4688 25.8906V7.60938C30.4688 7.04063 30.0219 6.59375 29.4531 6.59375H3.04688Z" fill="white"/>
<path d="M26.7922 13.5613H25.2687C24.8016 13.5613 24.4563 13.7035 24.2328 14.1707L21.3078 20.8332H23.3797C23.3797 20.8332 23.7453 19.9395 23.8062 19.7363H26.3453C26.4266 19.9801 26.5891 20.8129 26.5891 20.8129H28.4375L26.7922 13.5816V13.5613ZM24.375 18.2332C24.5578 17.8066 25.1672 16.202 25.1672 16.202C25.1672 16.2426 25.35 15.7754 25.4109 15.5316L25.5531 16.1816L26.0203 18.2941H24.375V18.2535V18.2332ZM21.45 18.4363C21.45 19.9395 20.0891 20.9348 17.9969 20.9348C17.1031 20.9348 16.25 20.752 15.7828 20.5488L16.0672 18.9035L16.3109 19.0051C16.9609 19.2895 17.3875 19.391 18.1594 19.391C18.7281 19.391 19.3375 19.1676 19.3375 18.6801C19.3375 18.3551 19.0938 18.152 18.3016 17.7863C17.55 17.4207 16.5547 16.852 16.5547 15.8363C16.5547 14.4145 17.9359 13.4395 19.9062 13.4395C20.6578 13.4395 21.2875 13.5816 21.6938 13.7645L21.4094 15.3285L21.2672 15.1863C20.9016 15.0441 20.4547 14.902 19.7641 14.902C19.0125 14.9426 18.6672 15.2676 18.6672 15.552C18.6672 15.877 19.0937 16.1207 19.7641 16.4457C20.9016 16.9738 21.4297 17.5832 21.4297 18.4363H21.45ZM4.0625 13.6223L4.10312 13.4801H7.17031C7.59687 13.4801 7.92188 13.6223 8.02344 14.0895L8.69375 17.2988C8.02344 15.5926 6.43906 14.191 4.0625 13.6223Z" fill="white"/>
<path d="M13 13.5602L9.89219 20.7914H7.77969L5.99219 14.7383C7.27187 15.5508 8.34844 16.8508 8.73438 17.7242L8.95781 18.4758L10.8875 13.5195H13V13.5602ZM13.8328 13.5195H15.7828L14.5437 20.7914H12.5937L13.8328 13.5195Z" fill="white"/>
</g>
<defs>
<clipPath id="clip0_371_5043">
<rect width="32.5" height="32.5" fill="white" transform="translate(0 0.5)"/>
</clipPath>
</defs>
</svg>
