<svg width="36" height="34" viewBox="0 0 36 34" fill="none" xmlns="http://www.w3.org/2000/svg">
<rect width="36" height="34" rx="5" fill="#188DFA"/>
<path d="M15.6075 16.2727C15.6075 15.6764 16.1126 15.1818 16.7217 15.1818H18.5788V13.3636C18.5788 12.7673 19.0839 12.2727 19.693 12.2727C20.3021 12.2727 20.8073 12.7673 20.8073 13.3636V15.1818H22.6643C23.2734 15.1818 23.7785 15.6764 23.7785 16.2727C23.7785 16.8691 23.2734 17.3636 22.6643 17.3636H20.8073V19.1818C20.8073 19.7782 20.3021 20.2727 19.693 20.2727C19.0839 20.2727 18.5788 19.7782 18.5788 19.1818V17.3636H16.7217C16.1126 17.3636 15.6075 16.8691 15.6075 16.2727ZM16.8852 26.8182C16.8852 28.0255 15.8898 29 14.6567 29C13.4236 29 12.4282 28.0255 12.4282 26.8182C12.4282 25.6109 13.4236 24.6364 14.6567 24.6364C15.8898 24.6364 16.8852 25.6109 16.8852 26.8182ZM26.5418 26.8182C26.5418 28.0255 25.5465 29 24.3134 29C23.0803 29 22.0849 28.0255 22.0849 26.8182C22.0849 25.6109 23.0803 24.6364 24.3134 24.6364C25.5465 24.6364 26.5418 25.6109 26.5418 26.8182ZM30.9691 10.7164L27.9978 22.3527C27.9379 22.5898 27.7985 22.8004 27.6018 22.9508C27.4052 23.1011 27.1627 23.1824 26.9132 23.1818H12.0568C11.522 23.1818 11.0614 22.8036 10.9574 22.28L8.14956 7.18182H6.11423C5.50512 7.18182 5 6.68727 5 6.09091C5 5.49455 5.50512 5 6.11423 5H9.08552C9.62035 5 10.0809 5.37818 10.1849 5.90182L10.8237 9.36364H29.8845C30.0535 9.36433 30.2201 9.40243 30.3719 9.47509C30.5236 9.54774 30.6567 9.65307 30.761 9.78318C30.8653 9.9133 30.9382 10.0648 30.9742 10.2264C31.0103 10.388 31.0085 10.5555 30.9691 10.7164ZM28.4583 11.5455H11.2248L12.9779 21H26.0367L28.4435 11.5455H28.4583Z" fill="white"/>
</svg>
