<svg width="44" height="41" viewBox="0 0 44 41" fill="none" xmlns="http://www.w3.org/2000/svg">
<rect x="0.875" y="0.710938" width="42.5938" height="39.7611" rx="4.5" fill="white" stroke="#188DFA"/>
<path d="M19.2475 20.4742C19.2475 19.8019 19.865 19.2443 20.6098 19.2443H22.8803V17.1946C22.8803 16.5222 23.4978 15.9647 24.2426 15.9647C24.9873 15.9647 25.6049 16.5222 25.6049 17.1946V19.2443H27.8754C28.6201 19.2443 29.2377 19.8019 29.2377 20.4742C29.2377 21.1465 28.6201 21.7041 27.8754 21.7041H25.6049V23.7538C25.6049 24.4261 24.9873 24.9837 24.2426 24.9837C23.4978 24.9837 22.8803 24.4261 22.8803 23.7538V21.7041H20.6098C19.865 21.7041 19.2475 21.1465 19.2475 20.4742ZM20.8096 32.3628C20.8096 33.7239 19.5926 34.8226 18.085 34.8226C16.5773 34.8226 15.3604 33.7239 15.3604 32.3628C15.3604 31.0018 16.5773 29.9031 18.085 29.9031C19.5926 29.9031 20.8096 31.0018 20.8096 32.3628ZM32.6162 32.3628C32.6162 33.7239 31.3992 34.8226 29.8916 34.8226C28.384 34.8226 27.167 33.7239 27.167 32.3628C27.167 31.0018 28.384 29.9031 29.8916 29.9031C31.3992 29.9031 32.6162 31.0018 32.6162 32.3628ZM38.0291 14.2101L34.3963 27.3286C34.3231 27.5959 34.1526 27.8333 33.9122 28.0028C33.6718 28.1723 33.3753 28.264 33.0703 28.2633H14.9062C14.2523 28.2633 13.6893 27.837 13.5621 27.2466L10.1291 10.2253H7.64062C6.8959 10.2253 6.27832 9.66781 6.27832 8.99549C6.27832 8.32316 6.8959 7.76562 7.64062 7.76562H11.2734C11.9273 7.76562 12.4904 8.19198 12.6176 8.78231L13.3986 12.6851H36.7031C36.9097 12.6859 37.1134 12.7288 37.2989 12.8107C37.4845 12.8926 37.6471 13.0114 37.7747 13.1581C37.9022 13.3047 37.9914 13.4756 38.0354 13.6578C38.0795 13.8399 38.0773 14.0288 38.0291 14.2101ZM34.9594 15.1448H13.8891L16.0324 25.8036H31.9986L34.9412 15.1448H34.9594Z" fill="#188DFA"/>
</svg>
