<svg width="41" height="41" viewBox="0 0 41 41" fill="none" xmlns="http://www.w3.org/2000/svg">
<path d="M20.6708 31.6896L20.5 31.8604L20.312 31.6896C12.1975 24.3267 6.83329 19.4579 6.83329 14.5208C6.83329 11.1042 9.39579 8.54167 12.8125 8.54167C15.4433 8.54167 18.0058 10.25 18.9112 12.5733H22.0887C22.9941 10.25 25.5566 8.54167 28.1875 8.54167C31.6041 8.54167 34.1666 11.1042 34.1666 14.5208C34.1666 19.4579 28.8025 24.3267 20.6708 31.6896ZM28.1875 5.125C25.215 5.125 22.362 6.50875 20.5 8.67833C18.6379 6.50875 15.785 5.125 12.8125 5.125C7.55079 5.125 3.41663 9.24208 3.41663 14.5208C3.41663 20.9612 9.22496 26.24 18.0229 34.2179L20.5 36.4729L22.977 34.2179C31.775 26.24 37.5833 20.9612 37.5833 14.5208C37.5833 9.24208 33.4491 5.125 28.1875 5.125Z" fill="black"/>
</svg>
