<svg width="43" height="43" viewBox="0 0 43 43" fill="none" xmlns="http://www.w3.org/2000/svg">
<path fill-rule="evenodd" clip-rule="evenodd" d="M38.6031 9.15721C39.107 9.66119 39.39 10.3446 39.39 11.0573C39.39 11.7699 39.107 12.4533 38.6031 12.9573L18.4594 33.101C18.1932 33.3673 17.8772 33.5785 17.5293 33.7226C17.1815 33.8667 16.8087 33.9409 16.4322 33.9409C16.0556 33.9409 15.6828 33.8667 15.335 33.7226C14.9871 33.5785 14.6711 33.3673 14.4049 33.101L4.39663 23.0946C4.13995 22.8467 3.93521 22.5501 3.79436 22.2222C3.65351 21.8943 3.57937 21.5417 3.57627 21.1848C3.57317 20.828 3.64117 20.4741 3.7763 20.1438C3.91143 19.8135 4.11099 19.5135 4.36332 19.2611C4.61566 19.0088 4.91572 18.8093 5.24601 18.6741C5.57629 18.539 5.93018 18.471 6.28703 18.4741C6.64387 18.4772 6.99652 18.5513 7.32441 18.6922C7.65229 18.833 7.94885 19.0378 8.19676 19.2945L16.4313 27.529L34.8012 9.15721C35.0508 8.90747 35.3471 8.70935 35.6733 8.57418C35.9995 8.43902 36.3491 8.36945 36.7022 8.36945C37.0553 8.36945 37.4049 8.43902 37.731 8.57418C38.0572 8.70935 38.3536 8.90747 38.6031 9.15721Z" fill="white"/>
</svg>
