<svg width="25" height="23" viewBox="0 0 25 23" fill="none" xmlns="http://www.w3.org/2000/svg">
<path d="M1.91974 8.92507L0.959868 10.0307L0 8.92507L0.959868 7.81941L1.91974 8.92507ZM25 21.4361C25 21.8509 24.857 22.2487 24.6024 22.542C24.3477 22.8352 24.0024 23 23.6423 23C23.2823 23 22.9369 22.8352 22.6823 22.542C22.4277 22.2487 22.2847 21.8509 22.2847 21.4361H25ZM7.74818 17.8501L0.959868 10.0307L2.8796 7.81941L9.66792 15.6388L7.74818 17.8501ZM0.959868 7.81941L7.74818 0L9.66792 2.21133L2.8796 10.0307L0.959868 7.81941ZM1.91974 7.36119H15.4964V10.489H1.91974V7.36119ZM25 18.3084V21.4361H22.2847V18.3084H25ZM15.4964 7.36119C18.0169 7.36119 20.4342 8.51455 22.2164 10.5675C23.9987 12.6205 25 15.405 25 18.3084H22.2847C22.2847 16.2345 21.5695 14.2456 20.2964 12.7792C19.0234 11.3128 17.2967 10.489 15.4964 10.489V7.36119Z" fill="black"/>
</svg>
