<svg width="30" height="30" viewBox="0 0 30 30" fill="none" xmlns="http://www.w3.org/2000/svg">
<path d="M16.7533 15.1563C16.7458 15.5462 16.6228 15.9252 16.3997 16.2451C16.1767 16.565 15.8637 16.8116 15.5003 16.9534C15.137 17.0952 14.7398 17.126 14.359 17.0418C13.9781 16.9576 13.6309 16.7623 13.3612 16.4805C13.0916 16.1987 12.9116 15.8432 12.8442 15.4591C12.7768 15.0749 12.825 14.6794 12.9826 14.3227C13.1403 13.9659 13.4003 13.664 13.7297 13.4552C14.0591 13.2464 14.4431 13.1401 14.833 13.1498C15.3511 13.169 15.8414 13.3892 16.1998 13.7638C16.5583 14.1384 16.7568 14.6378 16.7533 15.1563Z" fill="black"/>
<path d="M18.1725 8.98919H11.4946C10.8338 8.98919 10.2001 9.25168 9.7329 9.71892C9.26566 10.1862 9.00317 10.8199 9.00317 11.4806V18.3087C9.00317 18.6359 9.06762 18.9599 9.19282 19.2622C9.31803 19.5644 9.50155 19.8391 9.7329 20.0704C9.96425 20.3018 10.2389 20.4853 10.5412 20.6105C10.8435 20.7357 11.1674 20.8002 11.4946 20.8002H18.1725C18.4997 20.8002 18.8237 20.7357 19.126 20.6105C19.4282 20.4853 19.7029 20.3018 19.9343 20.0704C20.1656 19.8391 20.3491 19.5644 20.4743 19.2622C20.5995 18.9599 20.664 18.6359 20.664 18.3087V11.4929C20.6653 11.1648 20.6018 10.8397 20.4772 10.5361C20.3526 10.2326 20.1693 9.95658 19.9379 9.72399C19.7064 9.4914 19.4314 9.30676 19.1284 9.18067C18.8255 9.05458 18.5007 8.98951 18.1725 8.98919ZM14.833 18.4958C14.1719 18.5108 13.5214 18.3284 12.9644 17.972C12.4075 17.6155 11.9693 17.1013 11.706 16.4947C11.4426 15.8882 11.3659 15.217 11.4857 14.5667C11.6054 13.9164 11.9163 13.3166 12.3784 12.8437C12.8406 12.3708 13.4333 12.0464 14.0806 11.9118C14.728 11.7772 15.4008 11.8386 16.0132 12.0881C16.6256 12.3375 17.1497 12.7638 17.5188 13.3125C17.8878 13.8611 18.085 14.5073 18.0851 15.1686C18.0905 15.6007 18.0106 16.0296 17.85 16.4309C17.6894 16.8321 17.4512 17.1977 17.1491 17.5067C16.8471 17.8158 16.487 18.0622 16.0895 18.2319C15.6921 18.4017 15.2651 18.4913 14.833 18.4958ZM18.447 11.8425C18.3658 11.8426 18.2854 11.8264 18.2105 11.7949C18.1356 11.7635 18.0678 11.7174 18.0109 11.6594C17.954 11.6014 17.9093 11.5326 17.8794 11.4571C17.8494 11.3816 17.8349 11.3009 17.8365 11.2197C17.8365 11.0545 17.9021 10.8961 18.0189 10.7792C18.1357 10.6624 18.2942 10.5968 18.4594 10.5968C18.6245 10.5968 18.783 10.6624 18.8998 10.7792C19.0166 10.8961 19.0822 11.0545 19.0822 11.2197C19.0847 11.3076 19.0681 11.395 19.0336 11.476C18.9991 11.5569 18.9475 11.6294 18.8824 11.6886C18.8173 11.7477 18.7402 11.7921 18.6563 11.8187C18.5725 11.8452 18.4839 11.8534 18.3966 11.8425H18.447Z" fill="black"/>
<path d="M14.833 2.54761C11.5683 2.53129 8.43087 3.81253 6.11084 6.10947C3.79082 8.40641 2.47827 11.5309 2.46195 14.7956C2.44562 18.0603 3.72686 21.1977 6.0238 23.5178C8.32074 25.8378 11.4452 27.1503 14.7099 27.1667C16.3264 27.1747 17.9287 26.8644 19.4253 26.2532C20.9218 25.6421 22.2833 24.7421 23.4321 23.6048C24.5809 22.4675 25.4944 21.115 26.1204 19.6247C26.7465 18.1343 27.0729 16.5352 27.081 14.9187C27.0891 13.3022 26.7787 11.6999 26.1675 10.2033C25.5564 8.7068 24.6565 7.34527 23.5191 6.19651C22.3818 5.04775 21.0294 4.13425 19.539 3.50817C18.0486 2.88209 16.4495 2.5557 14.833 2.54761ZM22.3086 18.1832C22.312 18.7354 22.2058 19.2828 21.9961 19.7937C21.7864 20.3046 21.4773 20.7688 21.0869 21.1594C20.6964 21.5499 20.2323 21.8591 19.7215 22.069C19.2107 22.2788 18.6633 22.3852 18.111 22.382H11.5575C11.0052 22.3854 10.4578 22.2792 9.94689 22.0694C9.436 21.8597 8.97182 21.5507 8.58126 21.1602C8.1907 20.7698 7.88152 20.3057 7.67165 19.7949C7.46179 19.2841 7.35541 18.7366 7.35868 18.1844V11.6296C7.35524 11.0773 7.46147 10.5299 7.67118 10.019C7.8809 9.50812 8.18994 9.04394 8.58038 8.65338C8.97083 8.26282 9.43492 7.95365 9.94575 7.74378C10.4566 7.53391 11.004 7.42753 11.5562 7.4308H18.111C18.6632 7.42753 19.2105 7.53388 19.7212 7.74367C20.232 7.95345 20.696 8.26252 21.0864 8.65295C21.4769 9.04338 21.7859 9.50741 21.9957 10.0182C22.2055 10.5289 22.3119 11.0762 22.3086 11.6283V18.1832Z" fill="black"/>
</svg>
