<svg width="30" height="30" viewBox="0 0 30 30" fill="none" xmlns="http://www.w3.org/2000/svg">
<path d="M16.7533 15.0705C16.7458 15.4605 16.6228 15.8395 16.3997 16.1594C16.1767 16.4793 15.8637 16.7258 15.5003 16.8677C15.137 17.0095 14.7398 17.0403 14.359 16.9561C13.9781 16.8719 13.6309 16.6766 13.3612 16.3948C13.0916 16.113 12.9116 15.7575 12.8442 15.3734C12.7768 14.9892 12.825 14.5937 12.9826 14.237C13.1403 13.8802 13.4003 13.5783 13.7297 13.3695C14.0591 13.1607 14.4431 13.0544 14.833 13.0641C15.3511 13.0833 15.8414 13.3035 16.1998 13.6781C16.5583 14.0526 16.7568 14.5521 16.7533 15.0705Z" fill="white"/>
<path d="M18.1725 8.90348H11.4946C10.8338 8.90348 10.2001 9.16597 9.7329 9.6332C9.26566 10.1004 9.00317 10.7342 9.00317 11.3949V18.223C9.00317 18.5502 9.06762 18.8742 9.19282 19.1765C9.31803 19.4787 9.50155 19.7534 9.7329 19.9847C9.96425 20.2161 10.2389 20.3996 10.5412 20.5248C10.8435 20.65 11.1674 20.7145 11.4946 20.7145H18.1725C18.4997 20.7145 18.8237 20.65 19.126 20.5248C19.4282 20.3996 19.7029 20.2161 19.9343 19.9847C20.1656 19.7534 20.3491 19.4787 20.4743 19.1765C20.5995 18.8742 20.664 18.5502 20.664 18.223V11.4072C20.6653 11.0791 20.6018 10.754 20.4772 10.4504C20.3526 10.1468 20.1693 9.87087 19.9379 9.63828C19.7064 9.40568 19.4314 9.22105 19.1284 9.09496C18.8255 8.96887 18.5007 8.9038 18.1725 8.90348ZM14.833 18.4101C14.1719 18.425 13.5214 18.2427 12.9644 17.8862C12.4075 17.5298 11.9693 17.0155 11.706 16.409C11.4426 15.8025 11.3659 15.1313 11.4857 14.481C11.6054 13.8307 11.9163 13.2308 12.3784 12.758C12.8406 12.2851 13.4333 11.9607 14.0806 11.8261C14.728 11.6915 15.4008 11.7529 16.0132 12.0023C16.6256 12.2518 17.1497 12.6781 17.5188 13.2268C17.8878 13.7754 18.085 14.4216 18.0851 15.0829C18.0905 15.515 18.0106 15.9439 17.85 16.3451C17.6894 16.7463 17.4512 17.1119 17.1491 17.421C16.8471 17.73 16.487 17.9765 16.0895 18.1462C15.6921 18.3159 15.2651 18.4056 14.833 18.4101ZM18.447 11.7568C18.3658 11.7568 18.2854 11.7406 18.2105 11.7092C18.1356 11.6777 18.0678 11.6317 18.0109 11.5737C17.954 11.5157 17.9093 11.4469 17.8794 11.3714C17.8494 11.2959 17.8349 11.2152 17.8365 11.134C17.8365 10.9688 17.9021 10.8103 18.0189 10.6935C18.1357 10.5767 18.2942 10.5111 18.4594 10.5111C18.6245 10.5111 18.783 10.5767 18.8998 10.6935C19.0166 10.8103 19.0822 10.9688 19.0822 11.134C19.0847 11.2219 19.0681 11.3093 19.0336 11.3903C18.9991 11.4712 18.9475 11.5437 18.8824 11.6029C18.8173 11.662 18.7402 11.7064 18.6563 11.733C18.5725 11.7595 18.4839 11.7677 18.3966 11.7568H18.447Z" fill="white"/>
<path d="M14.833 2.4619C11.5683 2.44558 8.43087 3.72682 6.11084 6.02376C3.79082 8.3207 2.47827 11.4452 2.46195 14.7099C2.44562 17.9746 3.72686 21.112 6.0238 23.4321C8.32074 25.7521 11.4452 27.0646 14.7099 27.081C16.3264 27.089 17.9287 26.7786 19.4253 26.1675C20.9218 25.5564 22.2833 24.6564 23.4321 23.5191C24.5809 22.3818 25.4944 21.0293 26.1204 19.5389C26.7465 18.0486 27.0729 16.4495 27.081 14.833C27.0891 13.2165 26.7787 11.6142 26.1675 10.1176C25.5564 8.62109 24.6565 7.25956 23.5191 6.1108C22.3818 4.96204 21.0294 4.04854 19.539 3.42246C18.0486 2.79639 16.4495 2.46999 14.833 2.4619ZM22.3086 18.0975C22.312 18.6497 22.2058 19.1971 21.9961 19.708C21.7864 20.2189 21.4773 20.6831 21.0869 21.0737C20.6964 21.4642 20.2323 21.7734 19.7215 21.9833C19.2107 22.1931 18.6633 22.2995 18.111 22.2962H11.5575C11.0052 22.2997 10.4578 22.1934 9.94689 21.9837C9.436 21.774 8.97182 21.465 8.58126 21.0745C8.1907 20.6841 7.88152 20.22 7.67165 19.7092C7.46179 19.1983 7.35541 18.6509 7.35868 18.0987V11.5439C7.35524 10.9916 7.46147 10.4442 7.67118 9.9333C7.8809 9.42241 8.18994 8.95824 8.58038 8.56767C8.97083 8.17711 9.43492 7.86794 9.94575 7.65807C10.4566 7.44821 11.004 7.34182 11.5562 7.34509H18.111C18.6632 7.34183 19.2105 7.44817 19.7212 7.65796C20.232 7.86775 20.696 8.17681 21.0864 8.56724C21.4769 8.95767 21.7859 9.4217 21.9957 9.93245C22.2055 10.4432 22.3119 10.9905 22.3086 11.5426V18.0975Z" fill="white"/>
</svg>
