<svg width="26" height="26" viewBox="0 0 26 26" fill="none" xmlns="http://www.w3.org/2000/svg">
<path d="M11.7658 21.3294L11.7651 21.3288C8.9657 18.7903 6.68232 16.7162 5.09294 14.7717C3.50906 12.8339 2.66675 11.086 2.66675 9.20833C2.66675 6.13757 5.06396 3.75 8.12508 3.75C9.85893 3.75 11.5313 4.55973 12.6207 5.82897L13.0001 6.27105L13.3795 5.82897C14.4689 4.55973 16.1412 3.75 17.8751 3.75C20.9362 3.75 23.3334 6.13757 23.3334 9.20833C23.3334 11.086 22.4911 12.8339 20.9072 14.7717C19.3178 16.7162 17.0345 18.7903 14.235 21.3288L14.2343 21.3294L13.0001 22.453L11.7658 21.3294Z" fill="black" stroke="#F5F5F5"/>
</svg>
