<?xml version="1.0" standalone="no"?>
<!DOCTYPE svg PUBLIC "-//W3C//DTD SVG 20010904//EN"
 "http://www.w3.org/TR/2001/REC-SVG-20010904/DTD/svg10.dtd">
<svg version="1.0" xmlns="http://www.w3.org/2000/svg"
 width="157.000000pt" height="51.000000pt" viewBox="0 0 157.000000 51.000000"
 preserveAspectRatio="xMidYMid meet">

<g transform="translate(0.000000,51.000000) scale(0.100000,-0.100000)"
fill="#000000" stroke="none">
<path d="M220 420 c-14 -4 -46 -8 -71 -9 -45 -1 -47 -2 -63 -44 -20 -53 -20
-56 1 -79 14 -15 15 -24 6 -47 -6 -17 -7 -35 -2 -42 5 -8 9 -32 9 -55 0 -89
57 -99 62 -11 l3 52 60 9 c97 15 97 45 1 50 -31 2 -60 7 -64 10 -11 12 -1 90
14 106 9 10 36 15 79 15 74 1 102 17 71 41 -21 15 -66 17 -106 4z"/>
<path d="M775 400 c-4 -6 -1 -18 6 -26 9 -11 9 -20 0 -40 -26 -59 -2 -233 31
-222 9 3 13 33 13 101 1 53 4 99 8 103 3 4 25 -11 47 -33 51 -52 52 -78 3
-119 -32 -27 -36 -34 -25 -47 10 -12 20 -13 44 -6 49 14 68 37 68 84 0 51 -33
100 -112 168 -56 48 -72 55 -83 37z"/>
<path d="M1027 403 c-12 -12 -7 -41 8 -47 10 -3 15 -19 15 -48 0 -24 3 -74 7
-111 8 -93 24 -104 125 -87 40 7 79 17 86 23 9 7 16 5 26 -8 17 -24 46 -13 46
17 0 36 12 46 48 41 26 -4 36 -13 47 -39 10 -24 20 -34 36 -34 20 0 21 4 16
42 -16 117 -73 240 -114 246 -43 6 -68 -47 -79 -170 -7 -69 -11 -77 -31 -57
-9 9 -27 9 -73 0 -34 -7 -64 -10 -66 -8 -3 3 -6 17 -7 33 -2 27 1 29 38 34 29
4 41 10 43 24 5 25 -16 37 -55 30 -24 -5 -33 -3 -33 7 0 8 -3 24 -6 37 -6 20
-3 22 39 22 52 0 78 20 57 45 -9 11 -33 15 -90 15 -42 0 -80 -3 -83 -7z m369
-131 c6 -28 4 -32 -15 -32 -17 0 -21 6 -21 33 0 59 24 59 36 -1z"/>
<path d="M501 376 c-14 -17 -7 -254 7 -268 30 -30 58 39 47 116 l-5 41 31 -60
c51 -99 81 -122 113 -89 19 19 20 81 2 182 -14 79 -25 98 -52 88 -14 -6 -16
-16 -10 -74 3 -37 9 -78 11 -92 3 -14 -13 11 -35 55 -58 113 -81 134 -109 101z"/>
<path d="M380 365 c-19 -23 -35 -200 -21 -231 13 -30 39 -31 45 -1 5 23 16
145 19 207 2 39 -20 52 -43 25z"/>
</g>
</svg>
