<svg width="29" height="29" viewBox="0 0 29 29" fill="none" xmlns="http://www.w3.org/2000/svg">
<path d="M4.75832 23.8917C4.10405 23.8917 3.54415 23.6589 3.07863 23.1934C2.6131 22.7279 2.37994 22.1676 2.37915 21.5125V7.2375C2.37915 6.58323 2.61231 6.02334 3.07863 5.55781C3.54494 5.09229 4.10484 4.85913 4.75832 4.85834H23.7917C24.4459 4.85834 25.0062 5.0915 25.4725 5.55781C25.9389 6.02413 26.1716 6.58403 26.1708 7.2375V21.5125C26.1708 22.1668 25.9381 22.7271 25.4725 23.1934C25.007 23.6597 24.4467 23.8925 23.7917 23.8917H4.75832ZM14.275 15.5646L23.7917 9.61667V7.2375L14.275 13.1854L4.75832 7.2375V9.61667L14.275 15.5646Z" fill="black"/>
</svg>
