<svg width="29" height="30" viewBox="0 0 29 30" fill="none" xmlns="http://www.w3.org/2000/svg">
<path d="M4.75832 24.3417C4.10405 24.3417 3.54415 24.1089 3.07863 23.6434C2.6131 23.1779 2.37994 22.6176 2.37915 21.9625V7.6875C2.37915 7.03323 2.61231 6.47333 3.07863 6.00781C3.54494 5.54229 4.10484 5.30913 4.75832 5.30833H23.7917C24.4459 5.30833 25.0062 5.54149 25.4725 6.00781C25.9389 6.47413 26.1716 7.03402 26.1708 7.6875V21.9625C26.1708 22.6168 25.9381 23.1771 25.4725 23.6434C25.007 24.1097 24.4467 24.3425 23.7917 24.3417H4.75832ZM14.275 16.0146L23.7917 10.0667V7.6875L14.275 13.6354L4.75832 7.6875V10.0667L14.275 16.0146Z" fill="#188DFA"/>
</svg>
