<svg width="37" height="37" viewBox="0 0 37 37" fill="none" xmlns="http://www.w3.org/2000/svg">
<path d="M5.729 6.875C3.84411 6.875 2.2915 8.4276 2.2915 10.3125V26.3542C2.2915 28.2391 3.84411 29.7917 5.729 29.7917H30.9373C32.8222 29.7917 34.3748 28.2391 34.3748 26.3542V10.3125C34.3748 8.4276 32.8222 6.875 30.9373 6.875H5.729ZM5.729 9.16667H30.9373C31.5859 9.16667 32.0832 9.66396 32.0832 10.3125V26.3542C32.0832 27.0027 31.5859 27.5 30.9373 27.5H5.729C5.08046 27.5 4.58317 27.0027 4.58317 26.3542V10.3125C4.58317 9.66396 5.08046 9.16667 5.729 9.16667ZM13.7498 10.3125C9.33265 10.3125 5.729 13.9161 5.729 18.3333C5.729 22.7505 9.33265 26.3542 13.7498 26.3542C15.3888 26.3612 16.9898 25.8609 18.3332 24.9219C19.6769 25.8602 21.2776 26.3604 22.9165 26.3542C27.3337 26.3542 30.9373 22.7505 30.9373 18.3333C30.9373 13.9161 27.3337 10.3125 22.9165 10.3125C21.2776 10.3062 19.6769 10.8065 18.3332 11.7448C16.9898 10.8058 15.3888 10.3055 13.7498 10.3125ZM13.7498 12.6042C15.2177 12.6042 16.5342 13.1725 17.546 14.072C17.0675 14.6615 16.6918 15.3274 16.4345 16.0417H18.9783C19.1387 16.4083 19.2911 16.7888 19.3713 17.1875H16.1492C16.0813 17.5658 16.0453 17.949 16.0415 18.3333C16.0415 18.7275 16.0873 19.1079 16.1492 19.4792H19.3713C19.2911 19.8779 19.1387 20.2583 18.9783 20.625H16.4345C16.69 21.3457 17.0762 22.008 17.546 22.5947C16.5342 23.4942 15.2165 24.0625 13.7498 24.0625C10.5724 24.0625 8.02067 21.5107 8.02067 18.3333C8.02067 15.1559 10.5724 12.6042 13.7498 12.6042ZM22.9165 12.6042C26.0939 12.6042 28.6457 15.1559 28.6457 18.3333C28.6457 21.5107 26.0939 24.0625 22.9165 24.0625C21.9086 24.0589 20.9198 23.7868 20.0519 23.2742C21.1673 21.8691 21.7732 20.1273 21.7707 18.3333C21.7734 16.539 21.1675 14.7968 20.0519 13.3914C20.9199 12.8791 21.9087 12.6074 22.9165 12.6042Z" fill="white"/>
</svg>
