<svg width="33" height="33" viewBox="0 0 33 33" fill="none" xmlns="http://www.w3.org/2000/svg">
<path d="M16.2663 12.375L20.625 16.72V16.5C20.625 15.406 20.1904 14.3568 19.4168 13.5832C18.6432 12.8096 17.594 12.375 16.5 12.375H16.2663ZM10.3538 13.475L12.485 15.6063C12.4163 15.895 12.375 16.1838 12.375 16.5C12.375 17.594 12.8096 18.6432 13.5832 19.4168C14.3568 20.1904 15.406 20.625 16.5 20.625C16.8025 20.625 17.105 20.5838 17.3938 20.515L19.525 22.6462C18.6038 23.1 17.5863 23.375 16.5 23.375C14.6766 23.375 12.928 22.6507 11.6386 21.3614C10.3493 20.072 9.625 18.3234 9.625 16.5C9.625 15.4138 9.9 14.3963 10.3538 13.475ZM2.75 5.87125L5.885 9.00625L6.50375 9.625C4.235 11.4125 2.4475 13.75 1.375 16.5C3.75375 22.5363 9.625 26.8125 16.5 26.8125C18.6313 26.8125 20.6663 26.4 22.5225 25.6575L23.1138 26.235L27.1288 30.25L28.875 28.5038L4.49625 4.125M16.5 9.625C18.3234 9.625 20.072 10.3493 21.3614 11.6386C22.6507 12.928 23.375 14.6766 23.375 16.5C23.375 17.38 23.1963 18.2325 22.88 19.0025L26.9088 23.0313C28.9713 21.3125 30.6213 19.0575 31.625 16.5C29.2463 10.4638 23.375 6.1875 16.5 6.1875C14.575 6.1875 12.7325 6.53125 11 7.15L13.9838 10.1063C14.7675 9.80375 15.6063 9.625 16.5 9.625Z" fill="#8C8C8C"/>
</svg>
