<svg width="33" height="29" viewBox="0 0 33 29" fill="none" xmlns="http://www.w3.org/2000/svg">
<g clip-path="url(#clip0_371_5038)">
<path d="M29.4531 26.4062H3.04688C1.36094 26.4062 0 25.0453 0 23.3594V5.07812C0 3.39219 1.36094 2.03125 3.04688 2.03125H29.4531C31.1391 2.03125 32.5 3.39219 32.5 5.07812V23.3594C32.5 25.0453 31.1391 26.4062 29.4531 26.4062ZM3.04688 4.0625C2.47813 4.0625 2.03125 4.50938 2.03125 5.07812V23.3594C2.03125 23.9281 2.47813 24.375 3.04688 24.375H29.4531C30.0219 24.375 30.4688 23.9281 30.4688 23.3594V5.07812C30.4688 4.50938 30.0219 4.0625 29.4531 4.0625H3.04688Z" fill="white"/>
<path d="M20.4342 11.1914C20.4342 11.1914 20.4342 11.3133 20.3732 11.3945C19.8451 13.9945 18.1592 14.8477 15.9451 14.8477H14.8279C14.5639 14.8477 14.2998 15.0508 14.2998 15.2945L13.7107 18.9508L13.5889 19.9867C13.5889 20.1898 13.7107 20.3117 13.8529 20.3117H15.8639C16.1279 20.3117 16.3107 20.1086 16.3107 19.9258V19.8039L16.6967 17.4477V17.3258C16.7576 17.0617 16.9607 16.9398 17.1436 16.9398H17.4686C19.4186 16.9398 20.9217 16.1477 21.3076 13.8727C21.5107 12.8977 21.3686 12.1055 20.9217 11.5977C20.76 11.4504 20.5829 11.321 20.3936 11.2117L20.4342 11.1914Z" fill="white"/>
<path d="M19.9264 10.9895C19.9264 10.9895 19.8045 10.9285 19.6623 10.9285C19.6014 10.9285 19.4592 10.8676 19.3982 10.8676C19.0732 10.8066 18.7482 10.8066 18.4232 10.8066H15.417C15.417 10.8066 15.2951 10.8066 15.2139 10.8676C15.092 10.9285 14.9498 11.0707 14.9498 11.1926L14.2998 15.2348V15.3566C14.3607 15.0926 14.5639 14.9098 14.8279 14.9098H15.9451C18.1592 14.9098 19.8654 13.9957 20.3732 11.4566C20.3732 11.3957 20.3732 11.3348 20.4342 11.2535L20.0482 11.0504L19.9264 10.9895Z" fill="white"/>
<path d="M14.9703 11.1922C14.9703 11.0703 15.0922 10.9281 15.2344 10.8672C15.2953 10.8672 15.3563 10.8063 15.4375 10.8063H18.4438C18.7688 10.8063 19.1547 10.8062 19.4188 10.8672C19.4797 10.8672 19.6219 10.8672 19.6828 10.9281C19.7437 10.9281 19.8047 10.9891 19.9469 10.9891L20.0688 11.05L20.4547 11.2531C20.5766 10.2781 20.4547 9.62812 19.9266 9.03906C19.3375 8.38906 18.3016 8.125 17.0016 8.125H13.1625C12.8984 8.125 12.6344 8.32812 12.6344 8.57187L11.0703 18.6062C11.0703 18.8094 11.1922 18.9922 11.3953 18.9922H13.7516L14.3406 15.2141L14.9906 11.1719L14.9703 11.1922Z" fill="white"/>
</g>
<defs>
<clipPath id="clip0_371_5038">
<rect width="32.5" height="28.4375" fill="white"/>
</clipPath>
</defs>
</svg>
