<svg width="30" height="30" viewBox="0 0 30 30" fill="none" xmlns="http://www.w3.org/2000/svg">
<path d="M11.1278 26.6004C12.3095 26.9574 13.5036 27.1667 14.7714 27.1667C18.0361 27.1667 21.1671 25.8698 23.4756 23.5613C25.7841 21.2528 27.081 18.1218 27.081 14.8571C27.081 13.2406 26.7626 11.6399 26.144 10.1465C25.5253 8.65303 24.6186 7.29604 23.4756 6.15299C22.3325 5.00995 20.9755 4.10323 19.4821 3.48462C17.9886 2.86601 16.3879 2.54762 14.7714 2.54762C13.1549 2.54762 11.5542 2.86601 10.0608 3.48462C8.56733 4.10323 7.21034 5.00995 6.06729 6.15299C3.75881 8.46147 2.46191 11.5925 2.46191 14.8571C2.46191 20.0887 5.74856 24.5817 10.3892 26.3542C10.2785 25.3941 10.1677 23.8062 10.3892 22.7106L11.8048 16.6297C11.8048 16.6297 11.4479 15.9158 11.4479 14.7833C11.4479 13.0846 12.5065 11.8167 13.7128 11.8167C14.7714 11.8167 15.2638 12.5922 15.2638 13.5893C15.2638 14.6479 14.5622 16.1619 14.2052 17.6145C13.9959 18.8208 14.8453 19.8794 16.0762 19.8794C18.2673 19.8794 19.9661 17.5406 19.9661 14.2417C19.9661 11.2874 17.8488 9.26862 14.8084 9.26862C11.3371 9.26862 9.2937 11.8536 9.2937 14.574C9.2937 15.6326 9.63837 16.7036 10.2046 17.4052C10.3154 17.4791 10.3154 17.5775 10.2785 17.7622L9.92149 19.1039C9.92149 19.3132 9.78608 19.387 9.57682 19.2393C8.0012 18.55 7.0903 16.3097 7.0903 14.5002C7.0903 10.6104 9.84763 7.07752 15.1653 7.07752C19.3998 7.07752 22.6988 10.118 22.6988 14.1555C22.6988 18.39 20.0768 21.7874 16.3224 21.7874C15.1284 21.7874 13.959 21.1473 13.5405 20.3964L12.7157 23.3138C12.4326 24.3724 11.6571 25.788 11.1278 26.6374V26.6004Z" fill="black"/>
</svg>
