<svg width="31" height="31" viewBox="0 0 31 31" fill="none" xmlns="http://www.w3.org/2000/svg">
<path d="M21.1317 18.0833C21.235 17.2308 21.3125 16.3783 21.3125 15.5C21.3125 14.6217 21.235 13.7692 21.1317 12.9167H25.4975C25.7042 13.7433 25.8334 14.6088 25.8334 15.5C25.8334 16.3913 25.7042 17.2567 25.4975 18.0833M18.8455 25.265C19.6205 23.8313 20.2146 22.2813 20.628 20.6667H24.4384C23.187 22.8215 21.2016 24.4538 18.8455 25.265ZM18.5225 18.0833H12.4775C12.3484 17.2308 12.2709 16.3783 12.2709 15.5C12.2709 14.6217 12.3484 13.7563 12.4775 12.9167H18.5225C18.6388 13.7563 18.7292 14.6217 18.7292 15.5C18.7292 16.3783 18.6388 17.2308 18.5225 18.0833ZM15.5 25.7817C14.428 24.2317 13.5625 22.5138 13.033 20.6667H17.9671C17.4375 22.5138 16.5721 24.2317 15.5 25.7817ZM10.3334 10.3333H6.56171C7.79995 8.17242 9.78398 6.53744 12.1417 5.735C11.3667 7.16875 10.7855 8.71875 10.3334 10.3333ZM6.56171 20.6667H10.3334C10.7855 22.2813 11.3667 23.8313 12.1417 25.265C9.78864 24.4542 7.80725 22.8214 6.56171 20.6667ZM5.50254 18.0833C5.29587 17.2567 5.16671 16.3913 5.16671 15.5C5.16671 14.6088 5.29587 13.7433 5.50254 12.9167H9.86837C9.76504 13.7692 9.68754 14.6217 9.68754 15.5C9.68754 16.3783 9.76504 17.2308 9.86837 18.0833M15.5 5.20542C16.5721 6.75542 17.4375 8.48625 17.9671 10.3333H13.033C13.5625 8.48625 14.428 6.75542 15.5 5.20542ZM24.4384 10.3333H20.628C20.2231 8.73375 19.6245 7.18956 18.8455 5.735C21.2221 6.54875 23.1984 8.18917 24.4384 10.3333ZM15.5 2.58334C8.35712 2.58334 2.58337 8.39584 2.58337 15.5C2.58337 18.9257 3.94423 22.2111 6.36658 24.6335C7.566 25.8329 8.98992 26.7843 10.557 27.4334C12.1242 28.0826 13.8038 28.4167 15.5 28.4167C18.9258 28.4167 22.2112 27.0558 24.6335 24.6335C27.0558 22.2111 28.4167 18.9257 28.4167 15.5C28.4167 13.8038 28.0826 12.1241 27.4335 10.557C26.7844 8.98989 25.8329 7.56596 24.6335 6.36654C23.4341 5.16712 22.0102 4.21568 20.443 3.56656C18.8759 2.91744 17.1963 2.58334 15.5 2.58334Z" fill="black"/>
</svg>
